<svg width="100" height="100" viewBox="0 0 100 100" fill="none" xmlns="http://www.w3.org/2000/svg">
<path d="M9.21876 96.875C4.06251 96.875 1.71876 93.125 4.06251 88.5937L45.7813 6.5625C48.125 2.03125 51.875 2.03125 54.2188 6.5625L95.9375 88.5937C98.2813 93.125 95.9375 96.875 90.7813 96.875H9.21876Z" fill="#FFCE31"/>
<path d="M43.4375 36.875L47.8125 65.7812C48.2813 68.5937 51.875 68.5937 52.3438 65.7812L56.5625 36.875C57.3438 25.625 42.6563 25.625 43.4375 36.875" fill="#231F20"/>
<path d="M50 84.0625C53.6244 84.0625 56.5625 81.1244 56.5625 77.5C56.5625 73.8756 53.6244 70.9375 50 70.9375C46.3756 70.9375 43.4375 73.8756 43.4375 77.5C43.4375 81.1244 46.3756 84.0625 50 84.0625Z" fill="#231F20"/>
</svg>
